<svg width="19" height="19" viewBox="0 0 19 19" fill="none" xmlns="http://www.w3.org/2000/svg">
<path d="M5.83325 5.83333V3.5C5.83325 2.56657 5.83325 2.09986 6.01491 1.74334C6.1747 1.42974 6.42966 1.17477 6.74327 1.01498C7.09979 0.833328 7.5665 0.833328 8.49992 0.833328H14.8333C15.7667 0.833328 16.2334 0.833328 16.5899 1.01498C16.9035 1.17477 17.1585 1.42974 17.3183 1.74334C17.4999 2.09986 17.4999 2.56657 17.4999 3.5V9.83333C17.4999 10.7667 17.4999 11.2335 17.3183 11.59C17.1585 11.9036 16.9035 12.1586 16.5899 12.3183C16.2334 12.5 15.7667 12.5 14.8333 12.5H12.4999M3.49992 17.5H9.83325C10.7667 17.5 11.2334 17.5 11.5899 17.3183C11.9035 17.1586 12.1585 16.9036 12.3183 16.59C12.4999 16.2335 12.4999 15.7667 12.4999 14.8333V8.5C12.4999 7.56657 12.4999 7.09986 12.3183 6.74334C12.1585 6.42974 11.9035 6.17477 11.5899 6.01498C11.2334 5.83333 10.7667 5.83333 9.83325 5.83333H3.49992C2.5665 5.83333 2.09979 5.83333 1.74327 6.01498C1.42966 6.17477 1.1747 6.42974 1.01491 6.74334C0.833252 7.09986 0.833252 7.56657 0.833252 8.5V14.8333C0.833252 15.7667 0.833252 16.2335 1.01491 16.59C1.1747 16.9036 1.42966 17.1586 1.74327 17.3183C2.09979 17.5 2.5665 17.5 3.49992 17.5Z" stroke="#475467" stroke-width="1.66667" stroke-linecap="round" stroke-linejoin="round"/>
</svg>
