<svg width="17" height="19" viewBox="0 0 17 19" fill="none" xmlns="http://www.w3.org/2000/svg">
<path d="M11.6666 4.16666V3.5C11.6666 2.56657 11.6666 2.09986 11.4849 1.74334C11.3251 1.42974 11.0702 1.17477 10.7566 1.01498C10.4 0.833328 9.93334 0.833328 8.99992 0.833328H7.66658C6.73316 0.833328 6.26645 0.833328 5.90993 1.01498C5.59633 1.17477 5.34136 1.42974 5.18157 1.74334C4.99992 2.09986 4.99992 2.56657 4.99992 3.5V4.16666M6.66659 8.75V12.9167M9.99992 8.75V12.9167M0.833252 4.16666H15.8333M14.1666 4.16666V13.5C14.1666 14.9001 14.1666 15.6002 13.8941 16.135C13.6544 16.6054 13.272 16.9878 12.8016 17.2275C12.2668 17.5 11.5667 17.5 10.1666 17.5H6.49992C5.09979 17.5 4.39972 17.5 3.86494 17.2275C3.39454 16.9878 3.01209 16.6054 2.7724 16.135C2.49992 15.6002 2.49992 14.9001 2.49992 13.5V4.16666" stroke="#475467" stroke-width="1.66667" stroke-linecap="round" stroke-linejoin="round"/>
</svg>
